<svg id="ffe7807e-fe92-4af6-893f-9ccfafd3ca4e" data-name="logo" xmlns="http://www.w3.org/2000/svg" viewBox="0 0 450 100.75"><defs><style>.e4ec5e08-89d1-430d-80bc-4ebf9b4ad13c{fill:#fff;}</style></defs><path class="e4ec5e08-89d1-430d-80bc-4ebf9b4ad13c" d="M122.65,262.5h14.41v7.13H115.2V231.85h7.45Z" transform="translate(-31 -205.62)"/><path class="e4ec5e08-89d1-430d-80bc-4ebf9b4ad13c" d="M146.29,259q1.41,5.07,7.61,5.07a7.14,7.14,0,0,0,6-2.7l5.61,3.24q-4,5.77-11.77,5.77-6.69,0-10.74-4a14.24,14.24,0,0,1,10.2-24.45,12.85,12.85,0,0,1,9.8,4.1,14.25,14.25,0,0,1,3.86,10.14,16.41,16.41,0,0,1-.27,2.87Zm-.11-5.4H160a6.54,6.54,0,0,0-2.46-4.1,7,7,0,0,0-4.24-1.35,7.3,7.3,0,0,0-4.64,1.43A6.85,6.85,0,0,0,146.18,253.6Z" transform="translate(-31 -205.62)"/><path class="e4ec5e08-89d1-430d-80bc-4ebf9b4ad13c" d="M192.06,242.64h7v27h-7v-3.19a10.57,10.57,0,0,1-8.79,3.94,12.23,12.23,0,0,1-9.26-4.12A15.21,15.21,0,0,1,174,246a12.23,12.23,0,0,1,9.26-4.12,10.57,10.57,0,0,1,8.79,3.94Zm-12.84,19a7.15,7.15,0,0,0,5.34,2.14,7.25,7.25,0,0,0,5.37-2.14,8.1,8.1,0,0,0,0-11,7.29,7.29,0,0,0-5.37-2.14,7.19,7.19,0,0,0-5.34,2.14,8.16,8.16,0,0,0,0,11Z" transform="translate(-31 -205.62)"/><path class="e4ec5e08-89d1-430d-80bc-4ebf9b4ad13c" d="M212.3,247.28a7.27,7.27,0,0,1,3.22-3.88,9.7,9.7,0,0,1,5-1.3v7.77a8.21,8.21,0,0,0-5.7,1.3c-1.67,1.11-2.51,3-2.51,5.56v12.9h-7v-27h7Z" transform="translate(-31 -205.62)"/><path class="e4ec5e08-89d1-430d-80bc-4ebf9b4ad13c" d="M239.56,241.89a9.78,9.78,0,0,1,7.32,3q2.88,3,2.88,8.21v16.57h-7V253.92a5.51,5.51,0,0,0-1.46-4.13,5.3,5.3,0,0,0-3.88-1.43,5.72,5.72,0,0,0-4.32,1.68,6.93,6.93,0,0,0-1.62,5v14.57h-7v-27h7v3C233.21,243.14,235.89,241.89,239.56,241.89Z" transform="translate(-31 -205.62)"/><path class="e4ec5e08-89d1-430d-80bc-4ebf9b4ad13c" d="M259.16,239.4a4.34,4.34,0,0,1-4.27-4.26,4.16,4.16,0,0,1,1.27-3,4,4,0,0,1,3-1.3,4.12,4.12,0,0,1,3,1.3,4.19,4.19,0,0,1,1.26,3,4.09,4.09,0,0,1-1.26,3A4.16,4.16,0,0,1,259.16,239.4Zm-3.46,30.23v-27h7v27Z" transform="translate(-31 -205.62)"/><path class="e4ec5e08-89d1-430d-80bc-4ebf9b4ad13c" d="M284,241.89a9.74,9.74,0,0,1,7.31,3q2.89,3,2.89,8.21v16.57h-7V253.92a5.55,5.55,0,0,0-1.46-4.13,5.33,5.33,0,0,0-3.89-1.43,5.7,5.7,0,0,0-4.31,1.68,6.93,6.93,0,0,0-1.62,5v14.57h-7v-27h7v3C277.69,243.14,280.37,241.89,284,241.89Z" transform="translate(-31 -205.62)"/><path class="e4ec5e08-89d1-430d-80bc-4ebf9b4ad13c" d="M320.85,242.64h6.8v25.69q0,6.27-4.13,9.56a15.49,15.49,0,0,1-10,3.29,17,17,0,0,1-7.69-1.67,11.8,11.8,0,0,1-5.1-4.91l5.94-3.41c1.37,2.52,3.72,3.78,7.07,3.78a7.38,7.38,0,0,0,5.18-1.72,6.34,6.34,0,0,0,1.89-4.92v-2.91a10.18,10.18,0,0,1-8.63,4.1,12.77,12.77,0,0,1-9.59-4,14.29,14.29,0,0,1,0-19.57,12.72,12.72,0,0,1,9.56-4,10.15,10.15,0,0,1,8.63,4.1Zm-13,18.38a8.11,8.11,0,0,0,10.85,0,7.63,7.63,0,0,0,0-10.58,8.11,8.11,0,0,0-10.85,0,7.63,7.63,0,0,0,0,10.58Z" transform="translate(-31 -205.62)"/><path class="e4ec5e08-89d1-430d-80bc-4ebf9b4ad13c" d="M359.28,231.85V239h-10.2v30.66h-7.45V239H331.48v-7.12Z" transform="translate(-31 -205.62)"/><path class="e4ec5e08-89d1-430d-80bc-4ebf9b4ad13c" d="M378.12,241.89a9.74,9.74,0,0,1,7.31,3q2.9,3,2.89,8.21v16.57h-7V253.92a5.55,5.55,0,0,0-1.46-4.13,5.32,5.32,0,0,0-3.88-1.43A5.72,5.72,0,0,0,371.7,250a6.93,6.93,0,0,0-1.62,5v14.57h-7V231.85h7v13.81C371.77,243.14,374.45,241.89,378.12,241.89Z" transform="translate(-31 -205.62)"/><path class="e4ec5e08-89d1-430d-80bc-4ebf9b4ad13c" d="M401.22,247.28a7.29,7.29,0,0,1,3.21-3.88,9.76,9.76,0,0,1,5-1.3v7.77a8.2,8.2,0,0,0-5.7,1.3c-1.67,1.11-2.51,3-2.51,5.56v12.9h-7v-27h7Z" transform="translate(-31 -205.62)"/><path class="e4ec5e08-89d1-430d-80bc-4ebf9b4ad13c" d="M416.93,239.4a4.32,4.32,0,0,1-4.26-4.26,4.19,4.19,0,0,1,1.26-3,4.05,4.05,0,0,1,3-1.3,4.1,4.1,0,0,1,3.05,1.3,4.2,4.2,0,0,1,1.27,3,4.1,4.1,0,0,1-1.27,3A4.15,4.15,0,0,1,416.93,239.4Zm-3.46,30.23v-27h7v27Z" transform="translate(-31 -205.62)"/><path class="e4ec5e08-89d1-430d-80bc-4ebf9b4ad13c" d="M444.57,242.64h7.66l-10.26,27H434l-10.26-27h7.67L438,261.53Z" transform="translate(-31 -205.62)"/><path class="e4ec5e08-89d1-430d-80bc-4ebf9b4ad13c" d="M460.38,259q1.41,5.07,7.61,5.07a7.14,7.14,0,0,0,6.05-2.7l5.61,3.24q-4,5.77-11.77,5.77-6.69,0-10.74-4a14.24,14.24,0,0,1,10.2-24.45,12.85,12.85,0,0,1,9.8,4.1A14.25,14.25,0,0,1,481,256.13a16.41,16.41,0,0,1-.27,2.87Zm-.11-5.4H474a6.54,6.54,0,0,0-2.46-4.1,7,7,0,0,0-4.24-1.35,7.28,7.28,0,0,0-4.64,1.43A6.85,6.85,0,0,0,460.27,253.6Z" transform="translate(-31 -205.62)"/><path class="e4ec5e08-89d1-430d-80bc-4ebf9b4ad13c" d="M72.84,205.62s9.88,14.38,6.31,27.23c-4,14.41-20.59,18.81-29.78,15.6-10.73-3.74-17.06-16.53-15.21-26.32-8.32,17.42,0,35.5,22.56,44.54,26,10.42,14.68,35.07-1.59,39.71C105.5,299.27,115.2,237.74,72.84,205.62Z" transform="translate(-31 -205.62)"/><path class="e4ec5e08-89d1-430d-80bc-4ebf9b4ad13c" d="M55.31,222.88A10.17,10.17,0,1,0,68.74,228,10.18,10.18,0,0,0,55.31,222.88Z" transform="translate(-31 -205.62)"/><path class="e4ec5e08-89d1-430d-80bc-4ebf9b4ad13c" d="M54.39,220.82A12.45,12.45,0,0,1,70.21,226l5.44-8.43-24.84-4.79L37.72,234.41l9.9,1.6A12.45,12.45,0,0,1,54.39,220.82Z" transform="translate(-31 -205.62)"/></svg>